<?xml version="1.0" standalone="no"?>
<!DOCTYPE svg PUBLIC "-//W3C//DTD SVG 20010904//EN"
 "http://www.w3.org/TR/2001/REC-SVG-20010904/DTD/svg10.dtd">
<svg version="1.0" xmlns="http://www.w3.org/2000/svg"
 width="200.000000pt" height="200.000000pt" viewBox="0 0 200.000000 200.000000"
 preserveAspectRatio="xMidYMid meet">

<g transform="translate(0.000000,200.000000) scale(0.100000,-0.100000)"
fill="#000000" stroke="none">
<path d="M716 1477 c-17 -12 -18 -27 -11 -241 7 -206 10 -231 27 -248 13 -13
28 -17 51 -14 18 3 129 13 247 21 242 18 256 20 262 37 9 24 -7 347 -17 357
-6 6 -118 29 -250 51 -132 22 -251 43 -265 46 -14 2 -34 -1 -44 -9z m318 -61
c125 -19 229 -36 231 -38 1 -2 6 -81 10 -175 l7 -173 -29 0 c-15 0 -131 -5
-256 -11 -125 -7 -230 -9 -233 -7 -6 7 -23 431 -17 441 3 4 17 6 31 3 15 -3
130 -21 256 -40z"/>
<path d="M819 1378 c-14 -27 -4 -265 13 -285 16 -19 387 -18 413 1 17 12 18
23 12 122 -4 66 -12 113 -20 121 -10 11 -334 63 -389 63 -10 0 -23 -10 -29
-22z"/>
<path d="M1070 979 c-74 -9 -146 -18 -160 -19 -38 -2 56 -30 103 -30 59 0 207
40 207 56 0 8 -3 13 -7 13 -5 -1 -69 -10 -143 -20z"/>
<path d="M710 867 c0 -58 12 -77 46 -77 37 0 54 26 54 81 0 27 -4 49 -10 49
-5 0 -10 -15 -10 -32 0 -57 -10 -79 -34 -76 -18 3 -21 11 -24 56 -4 68 -22 68
-22 -1z"/>
<path d="M830 861 c0 -12 12 -24 33 -32 l32 -13 -32 -3 c-46 -6 -41 -25 4 -21
50 4 58 34 14 49 -40 14 -39 27 2 32 28 3 26 4 -10 5 -36 2 -43 -1 -43 -17z"/>
<path d="M930 833 c0 -24 5 -43 10 -43 6 0 10 13 10 29 0 29 21 57 33 44 4 -3
7 -21 7 -40 0 -18 5 -33 10 -33 6 0 10 13 10 29 0 29 21 57 33 44 4 -3 7 -21
7 -40 0 -18 5 -33 10 -33 6 0 10 20 10 44 l0 44 -70 -1 -70 -1 0 -43z"/>
<path d="M1107 873 c-4 -3 -7 -21 -7 -39 0 -27 5 -35 25 -40 14 -3 32 -4 40
-1 20 8 30 54 15 72 -13 15 -61 21 -73 8z m53 -33 c0 -23 -4 -30 -20 -30 -14
0 -20 7 -20 23 0 27 7 37 27 37 8 0 13 -12 13 -30z"/>
<path d="M1210 834 c0 -24 5 -44 10 -44 6 0 10 15 10 34 0 22 6 36 17 40 20 8
33 -10 33 -46 0 -16 5 -28 11 -28 6 0 9 17 7 43 l-3 42 -42 1 -43 2 0 -44z"/>
</g>
</svg>
